<svg id="visual" viewBox="0 0 900 600" width="900" height="600" xmlns="http://www.w3.org/2000/svg" xmlns:xlink="http://www.w3.org/1999/xlink" version="1.1"><path d="M251 0L231 0L231 60L248 60L248 120L210 120L210 180L217 180L217 240L222 240L222 300L223 300L223 360L246 360L246 420L240 420L240 480L207 480L207 540L236 540L236 600L0 600L0 540L0 540L0 480L0 480L0 420L0 420L0 360L0 360L0 300L0 300L0 240L0 240L0 180L0 180L0 120L0 120L0 60L0 60L0 0L0 0Z" fill="#c71010"></path><path d="M170 0L206 0L206 60L205 60L205 120L200 120L200 180L175 180L175 240L199 240L199 300L186 300L186 360L171 360L171 420L183 420L183 480L184 480L184 540L161 540L161 600L0 600L0 540L0 540L0 480L0 480L0 420L0 420L0 360L0 360L0 300L0 300L0 240L0 240L0 180L0 180L0 120L0 120L0 60L0 60L0 0L0 0Z" fill="#ab090e"></path><path d="M141 0L162 0L162 60L157 60L157 120L125 120L125 180L112 180L112 240L113 240L113 300L131 300L131 360L159 360L159 420L122 420L122 480L152 480L152 540L120 540L120 600L0 600L0 540L0 540L0 480L0 480L0 420L0 420L0 360L0 360L0 300L0 300L0 240L0 240L0 180L0 180L0 120L0 120L0 60L0 60L0 0L0 0Z" fill="#8f040c"></path><path d="M104 0L77 0L77 60L100 60L100 120L106 120L106 180L84 180L84 240L71 240L71 300L68 300L68 360L115 360L115 420L112 420L112 480L76 480L76 540L104 540L104 600L0 600L0 540L0 540L0 480L0 480L0 420L0 420L0 360L0 360L0 300L0 300L0 240L0 240L0 180L0 180L0 120L0 120L0 60L0 60L0 0L0 0Z" fill="#740107"></path><path d="M34 0L23 0L23 60L47 60L47 120L20 120L20 180L39 180L39 240L46 240L46 300L48 300L48 360L43 360L43 420L68 420L68 480L32 480L32 540L69 540L69 600L0 600L0 540L0 540L0 480L0 480L0 420L0 420L0 360L0 360L0 300L0 300L0 240L0 240L0 180L0 180L0 120L0 120L0 60L0 60L0 0L0 0Z" fill="#5b0000"></path></svg>